<?xml version="1.0" encoding="utf-8"?>
<!-- Generator: Adobe Illustrator 21.0.0, SVG Export Plug-In . SVG Version: 6.00 Build 0)  -->
<svg version="1.1" id="图层_1" xmlns="http://www.w3.org/2000/svg" xmlns:xlink="http://www.w3.org/1999/xlink" x="0px" y="0px"
	 viewBox="0 0 200 200" style="enable-background:new 0 0 200 200;" xml:space="preserve">
<style type="text/css">
	.st0{fill:none;stroke:#D43C31;stroke-width:0.5;stroke-miterlimit:10;}
	.st1{fill:#D43C31;}
</style>
<path class="st0" d="M106.6,109.8h-58c-2.2,0-4-1.8-4-4v-12c0-2.2,1.8-4,4-4h58c2.2,0,4,1.8,4,4v12
	C110.6,108,108.8,109.8,106.6,109.8z"/>
<g>
	<path class="st1" d="M55.7,92.4H57c-0.5,0.5-0.9,1-1.4,1.4h6.4v0.9c-3.1,2.5-6.9,4.4-11.4,5.6c-0.2-0.4-0.4-0.7-0.6-1
		c1.9-0.5,3.6-1.1,5.1-1.7c-0.3-0.4-0.8-0.8-1.3-1.3l0.8-0.6c0.5,0.5,1,1,1.5,1.5c1.7-0.8,3.1-1.6,4.4-2.6h-5.9
		c-0.9,0.8-2.1,1.6-3.4,2.3c-0.2-0.3-0.5-0.6-0.8-0.9C52.5,95.1,54.2,93.8,55.7,92.4z M57.7,97.9h1.4c-0.4,0.4-0.9,0.8-1.3,1.2h5v1
		c-2.9,3.2-6.8,5.2-11.7,5.9c-0.2-0.3-0.4-0.7-0.6-1c2.2-0.3,4.2-0.9,6-1.6c-0.3-0.3-0.6-0.8-1.1-1.3l0.8-0.6c0.5,0.5,0.9,1,1.3,1.4
		c1.5-0.8,2.8-1.7,4-2.9h-4.7c-1.6,1.2-3.3,2.2-5.1,3c-0.2-0.3-0.4-0.6-0.7-0.9C53.4,101,55.7,99.6,57.7,97.9z"/>
	<path class="st1" d="M64.3,104.9c3.1-0.6,5.2-1.8,6.2-3.5H64v-1h7c0.3-0.7,0.4-2.6,0.5-5.6h1.1c0,2.9-0.2,4.8-0.4,5.6h5.2v1h-5.5
		c-0.1,0.2-0.2,0.3-0.2,0.5c1.5,0.7,3.3,1.7,5.6,3l-0.6,1c-2.1-1.3-3.9-2.4-5.5-3.2c-1.2,1.5-3.2,2.6-6,3.3
		C64.8,105.7,64.6,105.4,64.3,104.9z M64.5,94.3v-1h12.2v0.9c-0.5,1.2-1,2.2-1.5,3c-0.4-0.2-0.8-0.4-1-0.4c0.5-0.7,0.9-1.6,1.3-2.5
		H64.5z M65.1,97.8l0.6-0.7c1.2,0.7,2.3,1.4,3.2,2.1l-0.6,0.8C67.2,99.2,66.2,98.4,65.1,97.8z M66.5,95.6l0.6-0.7
		c1.1,0.6,2.1,1.3,3.1,2l-0.6,0.9C68.6,97,67.6,96.3,66.5,95.6z"/>
	<path class="st1" d="M83.7,92.4H85c-0.5,0.5-0.9,1-1.4,1.4h6.4v0.9c-3.1,2.5-6.9,4.4-11.4,5.6c-0.2-0.4-0.4-0.7-0.6-1
		c1.9-0.5,3.6-1.1,5.1-1.7c-0.3-0.4-0.8-0.8-1.3-1.3l0.8-0.6c0.5,0.5,1,1,1.5,1.5c1.7-0.8,3.1-1.6,4.4-2.6h-5.9
		c-0.9,0.8-2.1,1.6-3.4,2.3c-0.2-0.3-0.5-0.6-0.8-0.9C80.5,95.1,82.2,93.8,83.7,92.4z M85.7,97.9h1.4c-0.4,0.4-0.9,0.8-1.3,1.2h5v1
		c-2.9,3.2-6.8,5.2-11.7,5.9c-0.2-0.3-0.4-0.7-0.6-1c2.2-0.3,4.2-0.9,6-1.6c-0.3-0.3-0.6-0.8-1.1-1.3l0.8-0.6c0.5,0.5,0.9,1,1.3,1.4
		c1.5-0.8,2.8-1.7,4-2.9h-4.7c-1.6,1.2-3.3,2.2-5.1,3c-0.2-0.3-0.4-0.6-0.7-0.9C81.4,101,83.7,99.6,85.7,97.9z"/>
	<path class="st1" d="M97.5,104.5l3.4,0l4.5-0.1c-0.1,0.3-0.2,0.7-0.4,1.1l-4.4,0l-3.4,0c-1.6,0-2.6-0.5-3.3-1.6
		c-0.4,0.3-0.9,1-1.6,1.8l-0.6-1.1c0.8-0.8,1.4-1.3,1.8-1.7v-4.6h-1.6v-1h2.7v5.9C95.1,104,96.1,104.4,97.5,104.5z M93.5,92.7
		c0.5,0.6,1.1,1.4,1.9,2.6l-1,0.7c-0.7-1.2-1.3-2.1-1.8-2.7L93.5,92.7z M98,98.6l0.7-0.7c1,0.7,1.9,1.4,2.8,2.1
		c0.8-0.8,1.4-1.8,1.8-2.8h-5.5c0,2.6-0.7,4.7-1.9,6.2c-0.2-0.3-0.4-0.6-0.7-0.9c1.1-1.2,1.6-3,1.6-5.4v-3.7c2.9,0,5.5-0.2,7.8-0.6
		l0.4,1.1c-2.4,0.2-4.7,0.4-7.2,0.5v1.9h6.6v1c-0.4,1.3-1.1,2.4-2.1,3.5c0.9,0.8,1.8,1.5,2.6,2.2l-0.8,0.9c-0.9-0.8-1.8-1.6-2.6-2.3
		c-1.1,1-2.4,1.8-3.9,2.5c-0.2-0.3-0.4-0.6-0.7-0.9c1.5-0.6,2.8-1.4,3.8-2.3C99.8,100,98.9,99.3,98,98.6z"/>
</g>
</svg>
