<?xml version="1.0" encoding="utf-8"?>
<!-- Generator: Adobe Illustrator 21.0.0, SVG Export Plug-In . SVG Version: 6.00 Build 0)  -->
<svg version="1.1" id="图层_1" xmlns="http://www.w3.org/2000/svg" xmlns:xlink="http://www.w3.org/1999/xlink" x="0px" y="0px"
	 viewBox="0 0 88 33" style="enable-background:new 0 0 88 33;" xml:space="preserve">
<style type="text/css">
	.st0{fill:#CE1222;}
	.st1{fill:none;stroke:#C30D23;stroke-width:2;stroke-linecap:round;stroke-miterlimit:10;}
</style>
<g>
	<g>
		<path class="st0" d="M17.7,15h5.9l-1.3,4.9c-0.1,0.5-0.3,0.9-0.4,1.2c-0.2,0.3-0.4,0.6-0.6,0.7L20.8,22c0.2,0.2,0.3,0.4,0.4,0.5
			s0.2,0.3,0.1,0.5c0,0.2,0,0.4-0.1,0.7L20,28.1c-0.1,0.4-0.3,0.8-0.4,1c-0.2,0.3-0.4,0.5-0.7,0.7c-0.3,0.2-0.8,0.3-1.6,0.3h-1.8
			l-0.2,0.7h-2L17.7,15z M16.2,28.1h1.4c0.2,0,0.3-0.1,0.4-0.2s0.2-0.3,0.3-0.6l0.9-3.4c0.1-0.4,0.1-0.6,0.1-0.7
			c-0.1-0.1-0.2-0.1-0.4-0.1h-1.3L16.2,28.1z M19.2,17l-1.1,4.2h1.3c0.2,0,0.4,0,0.5-0.1s0.2-0.3,0.3-0.7L21,17H19.2z M24.4,14.9
			h8.4L31,21.4c-0.2,0.8-0.5,1.4-0.7,1.7c-0.3,0.3-0.9,0.4-1.8,0.4h-4.3L23,28.1c-0.1,0.4-0.1,0.6,0,0.7s0.3,0.1,0.7,0.1h1.2
			l-0.5,1.8h-1.9c-0.9,0-1.4-0.1-1.6-0.4c-0.2-0.2-0.3-0.5-0.2-0.9c0-0.3,0.1-0.6,0.2-0.9L24.4,14.9z M24.5,24.3h2.4l0.1,0.5h0.5
			c0.2,0,0.4,0,0.6-0.1c0.1-0.1,0.3-0.2,0.4-0.3l0.2-0.2h1.9l-0.8,1.2c-0.3,0.5-0.6,0.8-0.8,0.9c-0.3,0.1-0.6,0.2-1.1,0.2h-0.5
			l0.3,1.5c0.1,0.4,0.2,0.6,0.4,0.7c0.2,0.1,0.5,0.2,0.8,0.2h0.5l-0.5,1.8h-1.2c-0.7,0-1.2-0.1-1.4-0.2c-0.2-0.1-0.4-0.3-0.5-0.4
			c-0.1-0.2-0.2-0.4-0.2-0.6L24.5,24.3z M29.3,20.2h-4.2l-0.4,1.5h3.4c0.3,0,0.6,0,0.7-0.1s0.2-0.3,0.3-0.5L29.3,20.2z M29.8,18.3
			l0.4-1.6H26l-0.4,1.6H29.8z"/>
		<path class="st0" d="M35.2,15h6.6l-3.6,13.6c-0.1,0.3-0.2,0.5-0.3,0.8s-0.3,0.5-0.5,0.6c-0.2,0.2-0.4,0.3-0.7,0.4
			s-0.6,0.2-0.9,0.2H31L35.2,15z M37.3,23.1h-2.1l-1.5,5.4H35c0.3,0,0.5,0,0.6-0.1s0.2-0.2,0.3-0.4L37.3,23.1z M37.8,21.2l1.1-3.9
			h-2.1l-1.1,3.9H37.8z M47.8,14.8h2.3l-0.3,1.3h0.8L50,18.2h-0.8l-2.8,10.5c-0.1,0.3-0.3,0.7-0.6,1.2s-0.9,0.8-1.9,0.8h-3.6l0.5-2
			h2.7c0.2,0,0.3,0,0.4-0.1c0.1-0.1,0.2-0.3,0.3-0.5l2.6-9.9h-5.1l0.6-2.1h5.1L47.8,14.8z M43.8,19.7l-0.5,4.2c0,0.3,0,0.4,0.1,0.5
			s0.3,0.1,0.5,0.1h0.9l-0.5,2h-1.7c-0.2,0-0.5,0-0.8-0.1s-0.5-0.2-0.7-0.4c-0.2-0.2-0.2-0.6-0.2-1.3l0.6-5
			C41.5,19.7,43.8,19.7,43.8,19.7z"/>
		<path class="st0" d="M48.5,30.2l0.5-1.9h0.3c0.1,0,0.1,0,0.2-0.1c0.1-0.1,0.1-0.2,0.2-0.4l2-6.5h1.8l-2.2,6.9
			c-0.1,0.2-0.2,0.4-0.3,0.7c-0.1,0.3-0.3,0.6-0.6,0.9c-0.2,0.3-0.7,0.4-1.3,0.4H48.5z M56.1,20.4l-2.8,10.3h-1.9l2.8-10.3h-3
			l0.5-1.9h3l0.3-1.1h-3l0.5-1.9h5.2c0.2,0,0.3,0,0.4-0.1c0.1-0.1,0.1-0.2,0.2-0.4l0.1-0.3h2.1l-0.2,0.7c-0.1,0.3-0.2,0.5-0.3,0.8
			c-0.1,0.2-0.3,0.5-0.5,0.6c-0.2,0.2-0.4,0.3-0.7,0.4s-0.7,0.1-1.2,0.1h-0.7l-0.3,1.1h2.7l-0.5,1.9L56.1,20.4L56.1,20.4z M58,21.2
			l-1.5,6.5c0,0.2-0.1,0.3-0.1,0.4s0.1,0.1,0.1,0.1h0.2l-0.5,1.9h-0.5c-0.6,0-1-0.1-1.1-0.4s-0.2-0.5-0.1-0.7c0-0.2,0.1-0.5,0.2-0.9
			l1.5-6.9H58z M63.6,25.4h2.2L64,28.8c-0.2,0.3-0.3,0.6-0.5,0.9s-0.4,0.5-0.7,0.7s-0.9,0.3-1.6,0.3h-4.9l0.5-1.9h4.3
			c0.3,0,0.5,0,0.6-0.1s0.3-0.2,0.4-0.5L63.6,25.4z M60.8,15.5h1.9l-1.9,7c-0.1,0.2-0.1,0.5-0.3,0.8c-0.1,0.3-0.3,0.5-0.4,0.8
			c-0.2,0.2-0.4,0.3-0.7,0.4s-0.6,0.1-1,0.1h-0.5l0.5-1.9h0.1c0.1,0,0.2,0,0.3-0.2c0.1-0.1,0.2-0.3,0.3-0.7L60.8,15.5z M63.5,14.8
			h1.9L62,27.3h-1.9L63.5,14.8z M67.6,15.4l-1.7,6.4c-0.1,0.3-0.1,0.5-0.1,0.7c0,0.1,0.1,0.2,0.2,0.2h0.1l-0.5,1.9h-0.5
			c-0.4,0-0.7,0-0.9-0.1c-0.2-0.1-0.4-0.2-0.5-0.4c-0.1-0.2-0.1-0.4,0-0.7c0-0.3,0.1-0.5,0.2-0.8l1.9-7.1h1.8V15.4z"/>
		<path class="st0" d="M66.9,28.7h0.8c0.4,0,0.7,0,0.8,0s0.2-0.1,0.3-0.1c0.1-0.1,0.2-0.3,0.5-0.6l1.2-2h2.2L71,28.9
			c-0.3,0.5-0.6,0.9-0.8,1.2c-0.2,0.3-0.5,0.4-0.8,0.5s-0.7,0.1-1.1,0.1h-1.8L66.9,28.7z M76.6,25.4l-0.9,3.5
			c-0.1,0.3-0.2,0.6-0.4,1.2c-0.2,0.5-0.8,0.8-1.8,0.8H71l0.5-1.9h1.4c0.2,0,0.3,0,0.4-0.1s0.2-0.3,0.3-0.7l0.7-2.6h-6.5l0.6-2.1
			h6.5l0.4-1.4h2.3l-0.4,1.4h6.5l-0.6,2.1h-6.5V25.4z M79.3,18.2l2.2,1.4c0.2,0.1,0.4,0.2,0.6,0.3c0.2,0.1,0.6,0.1,1.2,0.1h1.4
			l-0.5,1.8h-1.9c-0.8,0-1.3,0-1.5,0s-0.5-0.1-0.8-0.3l-3-2l-3.1,1.7c-0.8,0.4-1.4,0.7-1.8,0.7C71.7,22,71.3,22,70.9,22h-2.2
			l0.5-1.9H71c0.3,0,0.6-0.1,1.1-0.2s0.9-0.3,1.2-0.5l1.9-1.1l-4.7-3.4h3.6l3.5,2.2l4.6-2.3h3.4L79.3,18.2z M77.7,26.1h2.2l0.2,2.1
			c0,0.3,0.1,0.5,0.1,0.5c0.1,0.1,0.2,0.1,0.5,0.1h1.5l-0.5,1.8h-2.1c-0.4,0-0.6,0-0.8,0s-0.3-0.1-0.5-0.2c-0.1-0.1-0.2-0.3-0.2-0.6
			L77.7,26.1z"/>
	</g>
</g>
<path class="st1" d="M13,24c-2.7-2.3-3.8-6.2-2.4-9.7c1.8-4.4,6.8-6.5,11.1-4.7c1.6,0.7,2.9,1.8,3.9,3.1"/>
<polyline class="st1" points="23.4,10.3 24.3,8.3 26.1,9 "/>
<line class="st1" x1="13.7" y1="10.4" x2="12.8" y2="8.3"/>
</svg>
