<?xml version="1.0" encoding="utf-8"?>
<!-- Generator: Adobe Illustrator 21.0.0, SVG Export Plug-In . SVG Version: 6.00 Build 0)  -->
<svg version="1.1" id="图层_1" xmlns="http://www.w3.org/2000/svg" xmlns:xlink="http://www.w3.org/1999/xlink" x="0px" y="0px"
	 viewBox="0 0 210 56" style="enable-background:new 0 0 210 56;" xml:space="preserve">
<style type="text/css">
	.st0{fill:#D03D31;}
	.st1{fill:#FFFFFF;}
</style>
<path class="st0" d="M202,55.9H8c-4.4,0-8-3.6-8-8V8.1c0-4.4,3.6-8,8-8h194c4.4,0,8,3.6,8,8v39.8C210,52.3,206.4,55.9,202,55.9z"/>
<g>
	<path class="st1" d="M30.1,43.5V31.9H19.5c-0.4,5-1.9,9.2-4.4,12.5c-0.6-0.8-1.3-1.6-2.1-2.5c1.6-2.2,2.6-4.7,3.2-7.4
		c0.5-2.6,0.8-6.3,0.8-11.1v-13h29.6v28.9c0,2.9-1.4,4.3-4.1,4.3c-1.7,0-3.5,0-5.6-0.1c-0.1-0.8-0.3-1.8-0.5-3
		c2.1,0.1,3.8,0.2,5.1,0.2c1.5,0,2.3-0.7,2.3-2.1v-6.7H33v11.5H30.1z M19.7,29.3h10.4v-6.8H19.9C19.9,24.9,19.9,27.1,19.7,29.3z
		 M19.9,13.1v6.8h10.2v-6.8H19.9z M43.6,13.1H33v6.8h10.7V13.1z M33,29.3h10.7v-6.8H33V29.3z"/>
	<path class="st1" d="M51.2,27.7h15.5v-5h-8.9v-1.8c-1.9,1.3-4,2.6-6.2,3.7c-0.5-0.8-1.1-1.7-1.8-2.7c7.5-3.7,13.1-8.2,16.9-13.4
		h3.8l-0.7,0.9c4,5.2,9.4,9.2,16.2,11.9c-0.8,1-1.4,2-1.9,2.8c-2.2-1-4.2-2.2-6.1-3.5v2h-8.3v5h15v2.7h-15v8.4c0,3.3-1.6,5-4.9,5
		c-1.1,0-2.7,0-4.6-0.1c-0.1-0.9-0.3-1.9-0.5-3c1.8,0.2,3.3,0.3,4.5,0.3c1.7,0,2.5-0.8,2.5-2.5v-8.1H51.2V27.7z M58.9,32l2.6,1.7
		c-3,3.5-5.7,6.5-8.4,8.8c-0.7-0.6-1.5-1.3-2.4-2C53.8,38.1,56.5,35.3,58.9,32z M68,11.6c-2.3,3-5.3,5.7-8.9,8.3h17.9
		C73.6,17.6,70.6,14.8,68,11.6z M75.3,32c3.8,3,7.1,5.6,9.7,8l-2.3,2.3c-3-2.9-6.1-5.6-9.5-8.3L75.3,32z"/>
	<path class="st1" d="M91.5,24.8l1.3-2c1.4,0.7,2.8,1.4,4.1,2c1.3-1.2,2.3-2.6,3.2-4.1H93c-1.3,2.1-2.7,4-4.1,5.6
		c-0.5-0.6-1.1-1.2-1.7-1.7c2.3-2.4,4.2-5.4,5.7-8.9l2.4,0.8c-0.3,0.7-0.7,1.4-1.1,2.1h8.8v2.1c-1,2-2.3,3.8-3.8,5.4
		c2.1,1.1,4,2.1,5.8,3l-1.5,2.4c-2.1-1.2-4.2-2.4-6.3-3.5c-1.8,1.5-3.9,2.7-6.3,3.8h11.6v11.7h-2.4v-1.6h-7.4v1.9h-2.4V31.8
		c-0.7,0.3-1.5,0.6-2.2,0.8c-0.3-0.7-0.7-1.4-1.2-2.2c3.1-1,5.8-2.3,8-4C93.8,25.9,92.6,25.3,91.5,24.8z M87.9,12.5h7.5
		c-0.5-1.1-1.1-2.2-1.7-3.4l2.4-1c0.9,1.7,1.6,3.1,2.2,4.4h6.4v5.1h-2.5v-2.9H90.4v2.9h-2.5V12.5z M100.1,33.8h-7.4v5.6h7.4V33.8z
		 M112.5,22.3h2.6c0,6.2-0.2,10.4-0.8,12.8c3.5,2.4,6.5,4.7,9.1,6.8l-1.8,2.3c-2.3-2.1-5.1-4.3-8.3-6.6c-1.5,2.7-4.3,5.1-8.4,7
		c-0.5-0.7-1.1-1.5-1.7-2.3c4.5-2,7.2-4.4,8.3-7.2C112.3,33.1,112.7,28.8,112.5,22.3z M106.1,17.5h5.3l0.8-4.6h-6.9v-2.5h17.4V13
		H115l-1,4.6h7.6v18.2H119V20h-10.4v15.8h-2.5V17.5z"/>
	<path class="st1" d="M124.7,39h18.9c2.8-5.5,5.4-12,7.9-19.5l3.3,1.2c-2.5,6.8-5,12.9-7.7,18.3h12.7v2.8h-35.1V39z M125.6,15.2H159
		V18h-33.3V15.2z M130,21.1l2.9-1.2c2.2,5.1,4.3,10.3,6.4,15.5l-3.2,1.3C134,31,132,25.8,130,21.1z M138.4,9.3l2.7-1.5
		c1.2,1.6,2.4,3.5,3.6,5.5l-2.9,1.7C140.8,13.2,139.7,11.3,138.4,9.3z"/>
	<path class="st1" d="M176.5,40.3l9.1,0.1l11.9-0.3c-0.3,0.8-0.6,1.8-1,2.9l-11.7,0l-8.9-0.1c-4.1,0-7-1.5-8.7-4.2
		c-1,0.9-2.4,2.5-4.4,4.9l-1.5-3c2.1-2.1,3.7-3.6,4.6-4.4V23.9h-4.3v-2.7h7.1v15.5C170.2,39.1,172.8,40.3,176.5,40.3z M165.8,9
		c1.2,1.5,2.9,3.8,5.1,6.9l-2.6,1.8c-2-3.1-3.6-5.4-4.8-7.1L165.8,9z M177.9,24.8l1.7-1.9c2.6,1.9,5,3.8,7.4,5.6
		c2.1-2.2,3.7-4.7,4.8-7.5h-14.6c0,7-1.7,12.5-5.1,16.4c-0.5-0.7-1.2-1.5-1.9-2.3c2.9-3.3,4.3-8.1,4.3-14.3v-10
		c7.7-0.1,14.7-0.6,20.8-1.6l1,2.8c-6.2,0.7-12.6,1.1-19.1,1.3v5.1h17.6v2.6c-1.2,3.4-3,6.5-5.5,9.2c2.5,2,4.9,3.9,7,5.8l-2.2,2.4
		c-2.3-2.1-4.6-4.1-7-6.1c-2.8,2.5-6.3,4.7-10.5,6.6c-0.5-0.7-1.1-1.5-1.8-2.3c4-1.7,7.3-3.8,10.1-6.1
		C182.6,28.5,180.3,26.6,177.9,24.8z"/>
</g>
</svg>
